<?xml version="1.0" encoding="UTF-8"?>
<svg id="Laag_2" data-name="Laag 2" xmlns="http://www.w3.org/2000/svg" viewBox="0 0 160.6 160.6">
    <defs>
        <style>
            .cls-1 {
            fill: #009fe3;
            }
        </style>
    </defs>
    <g id="Laag_1-2" data-name="Laag 1">
        <g>
            <path class="cls-1" d="M80.3,0C54.53,0,31.56,12.2,16.85,31.13l3.12,7.58C33.21,19.57,55.31,7,80.3,7s48.12,13.16,61.24,33.06l3.11-7.75C129.99,12.71,106.6,0,80.3,0Z"/>
            <path class="cls-1" d="M149.69,39.92c6.94,11.87,10.91,25.67,10.91,40.38,0,44.28-36.02,80.3-80.3,80.3S0,124.58,0,80.3c0-15.3,4.3-29.61,11.75-41.79l9.34,23.13,15.64,39.05,21.15-52.78h11.06v64.69h-8.53v-25.19l.8-27.2-21.24,52.39h-6.53L10.84,56.88c-2.49,7.36-3.84,15.24-3.84,23.42,0,40.42,32.88,73.3,73.3,73.3s73.3-32.88,73.3-73.3c0-7.5-1.13-14.75-3.24-21.57l-21.84,53.87h-6.53l-21.2-52.25.85,27.06v25.19h-8.54V47.91h11.02l21.15,52.78,24.42-60.77Z"/>
        </g>
    </g>
</svg>