<?xml version="1.0" encoding="UTF-8"?>
<svg id="Laag_2" data-name="Laag 2" xmlns="http://www.w3.org/2000/svg" viewBox="0 0 1201.66 160.6">
  <defs>
    <style>
      .cls-1 {
        fill: #002337;
      }

      .cls-2 {
        fill: #009fe3;
      }

      .cls-3 {
        fill: #040304;
      }

      .cls-4 {
        fill: none;
        stroke: #030304;
        stroke-miterlimit: 10;
        stroke-width: 2.83px;
      }
    </style>
  </defs>
  <g id="Laag_1-2" data-name="Laag 1">
    <g>
      <line class="cls-4" x1="445.92" y1="10.6" x2="445.92" y2="146.26"/>
      <g>
        <path class="cls-3" d="M158.24,59.93c1.89-1.89,4.15-3.4,6.61-4.15,2.45-.94,4.91-1.32,7.36-1.32,3.02,0,6.04.76,8.69,2.08,2.83,1.32,5.1,3.21,6.99,5.66,1.89,2.45,3.02,5.29,3.21,8.69v.94h-38.9c.38-1.51.76-3.02,1.13-4.34,1.32-3.21,3.02-5.66,4.91-7.55M200.35,79c.94-.94,1.51-1.89,1.51-3.21,0-4.72-.94-8.88-2.64-12.65-1.7-3.78-3.78-6.99-6.61-9.63-2.64-2.64-5.85-4.72-9.44-6.23-3.59-1.32-7.18-2.08-10.95-2.08-5.1,0-10.01,1.32-14.54,3.97-4.53,2.64-8.31,6.61-11.14,11.71-2.83,5.1-4.34,11.14-4.34,18.51,0,6.42,1.32,12.09,4.15,16.99,2.64,4.91,6.61,8.88,11.52,11.52,4.91,2.83,10.76,4.15,17.56,4.15,4.53,0,8.69-.94,12.65-2.83,3.97-1.89,7.18-4.15,9.44-6.61,1.32-1.13,2.08-2.45,2.08-3.78,0-1.13-.38-2.08-1.32-3.02-.76-.76-1.89-1.32-3.02-1.32s-2.08.38-3.21,1.13c-1.13,1.13-2.45,2.27-3.97,3.4s-3.4,2.08-5.48,2.83c-2.08.76-4.72,1.13-7.55,1.13-4.72,0-8.69-1.13-12.09-3.21s-6.23-4.91-8.12-8.69c-1.7-3.21-2.64-6.8-2.83-10.76h45.13c1.13,0,2.27-.57,3.21-1.32"/>
        <path class="cls-3" d="M267.76,78.43c0-4.72-.94-9.06-2.83-12.65-1.89-3.59-4.53-6.42-7.93-8.5-3.4-2.08-7.18-3.21-11.14-3.21s-7.93,1.13-11.33,3.21c-3.4,2.08-6.04,4.91-7.93,8.5-2.08,3.59-3.02,7.74-3.02,12.65s.94,8.88,3.02,12.46c2.08,3.59,4.72,6.61,7.93,8.69,3.4,2.08,7.18,3.21,11.33,3.21s7.93-1.13,11.14-3.21c3.4-2.08,6.04-4.91,7.93-8.69,1.7-3.4,2.83-7.74,2.83-12.46M277.77,78.43c0,6.42-1.51,12.27-4.34,17.18-2.83,5.1-6.61,9.06-11.52,11.9-4.91,2.83-10.2,4.34-16.24,4.34s-11.52-1.51-16.43-4.34c-4.91-2.83-8.69-6.8-11.52-11.9s-4.34-10.76-4.34-17.18,1.51-12.27,4.34-17.18c2.83-5.1,6.8-9.06,11.52-11.9,4.91-2.83,10.39-4.34,16.43-4.34s11.52,1.51,16.24,4.34c4.91,2.83,8.69,6.8,11.52,11.9,2.83,5.1,4.34,10.76,4.34,17.18"/>
        <path class="cls-3" d="M288.91,100.53c-.76-1.13-.94-2.27-.94-3.4s.76-2.27,2.08-3.21c.94-.57,1.89-.76,3.02-.76s2.08.57,3.02,1.7c2.27,2.64,4.91,4.91,7.93,6.61,3.02,1.7,6.61,2.45,10.95,2.45,1.89,0,3.78-.38,5.85-.94,2.08-.57,3.78-1.51,5.1-3.02,1.32-1.51,2.08-3.4,2.08-5.85,0-2.27-.76-4.15-2.08-5.48-1.32-1.32-3.21-2.45-5.48-3.4-2.27-.94-4.72-1.7-7.18-2.27-2.64-.76-5.48-1.51-8.12-2.45-2.64-.94-5.1-2.08-7.18-3.59-2.08-1.51-3.78-3.21-5.1-5.48-1.32-2.27-1.89-4.91-1.89-8.12,0-3.78.94-6.99,3.02-9.63,2.08-2.64,4.72-4.91,8.12-6.42,3.4-1.51,7.18-2.27,11.33-2.27,2.27,0,4.72.19,7.18.76,2.45.57,4.91,1.51,7.36,2.64,2.45,1.32,4.53,3.02,6.42,5.29.76.76,1.13,1.89,1.32,3.02,0,1.32-.38,2.45-1.7,3.4-.94.76-1.89.94-3.02.94s-2.08-.38-2.83-1.13c-1.89-2.08-3.97-3.78-6.61-4.91s-5.48-1.7-8.69-1.7c-1.89,0-3.78.38-5.66.94-1.89.57-3.59,1.51-4.72,2.83-1.32,1.32-1.89,3.21-1.89,5.66,0,2.27.76,3.97,2.27,5.48,1.32,1.32,3.4,2.45,5.66,3.4,2.45.94,5.1,1.7,7.93,2.45,2.64.76,5.1,1.51,7.55,2.27,2.45.94,4.72,2.08,6.61,3.4,2.08,1.32,3.59,3.21,4.72,5.48,1.13,2.27,1.7,4.91,1.7,8.31,0,3.78-1.13,7.18-3.21,9.82-2.08,2.83-4.91,4.91-8.5,6.42-3.59,1.51-7.36,2.08-11.33,2.08-4.53,0-9.06-.76-13.6-2.45-4.53-1.7-8.31-4.53-11.52-8.88"/>
        <path class="cls-3" d="M379.93,45.01c4.34,0,8.12.38,11.52,1.32,3.4.94,6.04,2.08,8.12,3.78,2.08,1.51,3.02,3.4,3.02,5.29,0,1.13-.38,2.27-1.13,3.21-.76.94-1.7,1.51-3.02,1.51-1.13,0-1.89-.19-2.64-.76-.76-.38-1.32-.94-2.08-1.7-.57-.57-1.51-1.13-2.45-1.89-.94-.57-2.45-.94-4.34-1.32-1.89-.38-3.78-.57-5.66-.57-4.53,0-8.5,1.13-11.9,3.21-3.4,2.08-6.23,5.1-8.12,8.69-2.08,3.59-3.02,7.74-3.02,12.46s.94,8.69,2.83,12.46c1.89,3.59,4.53,6.61,7.93,8.69,3.4,2.08,7.36,3.21,11.71,3.21,2.83,0,5.29-.19,6.8-.76,1.7-.57,3.21-1.13,4.34-1.7,1.32-.76,2.45-1.7,3.21-2.45.76-.76,1.89-1.32,3.21-1.32s2.45.38,3.21,1.32c.76.94,1.13,2.08,1.13,3.4,0,1.51-.94,3.21-3.02,4.91-2.08,1.7-4.91,3.02-8.5,4.15-3.59,1.13-7.55,1.7-11.9,1.7-6.23,0-11.71-1.51-16.43-4.34-4.72-3.02-8.31-6.99-10.95-12.09-2.64-5.1-3.97-10.76-3.97-16.99s1.32-11.9,3.97-16.99c2.64-5.1,6.42-9.06,11.14-12.09,5.1-2.83,10.57-4.34,16.99-4.34"/>
        <path class="cls-1" d="M28.14,100.34c-10.2-2.45-17.18-11.33-17.18-21.72,0-4.15,1.13-8.12,3.4-11.71.94-1.7.76-3.78-.57-5.29l-1.89-1.89c-.94-.94-2.27-1.32-3.59-1.32-1.32.19-2.45.76-3.02,1.89-3.59,5.48-5.29,11.71-5.29,18.13,0,15.67,11.14,29.46,26.44,32.67h.94c.94,0,1.89-.38,2.64-.94.94-.76,1.51-2.08,1.51-3.4v-2.45c-.38-1.7-1.7-3.4-3.4-3.97"/>
        <g>
          <path class="cls-2" d="M51.36,50.3c-5.48-3.59-11.71-5.29-18.13-5.29s-12.84,1.89-18.13,5.29c-1.13.76-1.89,1.89-1.89,3.21-.19,1.32.38,2.64,1.32,3.59l1.89,1.89c.94.94,2.08,1.32,3.21,1.32.76,0,1.51-.19,2.27-.57,3.59-2.08,7.55-3.21,11.71-3.21s8.12,1.13,11.71,3.21c1.7,1.13,3.97.76,5.48-.57l1.89-1.89c.94-.94,1.51-2.27,1.32-3.59-.76-1.51-1.51-2.64-2.64-3.4"/>
          <path class="cls-2" d="M89.13,45.2c-18.51,0-33.42,14.92-33.42,33.42v.38c-.19,10.57-7.74,19.64-17.94,21.72-1.32.19-2.45,1.51-2.45,3.02v5.1c0,.94.38,1.7,1.13,2.27.76.57,1.51.76,2.45.76,16.24-2.64,27.95-16.62,27.95-33.05,0-12.27,10.01-22.47,22.47-22.47s22.47,10.01,22.47,22.47-10.01,22.47-22.47,22.47c-3.02,0-5.48,2.45-5.48,5.48s2.45,5.48,5.48,5.48c18.51,0,33.42-14.92,33.42-33.42-.19-18.69-15.3-33.61-33.61-33.61"/>
        </g>
      </g>
      <g>
        <path class="cls-2" d="M704.07,112.6l-24.75-64.7h-7.46l-24.71,64.7h8.8l5.59-15.54c.65-.12,1.3-.24,1.95-.35,7.93-1.29,16.3-1.27,24.23.09.66.11,1.31.23,1.97.36l5.63,15.44h8.75ZM664.31,89.53l.31-.84,10.97-30.26,11.02,30.26.33.91c-7.44-1.08-15.17-1.1-22.64-.08Z"/>
        <path class="cls-2" d="M599.65,112.6l-24.75-64.7h-7.46l-24.71,64.7h8.8l5.59-15.54c.65-.12,1.3-.24,1.95-.35,7.94-1.29,16.3-1.27,24.23.09.66.11,1.31.23,1.97.36l5.63,15.44h8.75ZM559.89,89.53l.31-.84,10.97-30.26,11.02,30.26.33.91c-7.44-1.08-15.17-1.1-22.64-.08Z"/>
        <path class="cls-2" d="M489.32,112.6V47.91h18.26c5.63,0,10.6,1.24,14.93,3.73,4.32,2.49,7.67,6.03,10.02,10.62,2.36,4.59,3.55,9.86,3.58,15.82v4.13c0,6.1-1.18,11.45-3.53,16.04-2.36,4.59-5.72,8.12-10.09,10.58-4.37,2.46-9.46,3.72-15.26,3.78h-17.91ZM497.86,54.88v50.74h8.97c6.58,0,11.69-2.04,15.35-6.14,3.66-4.09,5.49-9.92,5.49-17.48v-3.78c0-7.35-1.73-13.07-5.18-17.14-3.45-4.08-8.35-6.14-14.68-6.2h-9.95Z"/>
        <path class="cls-2" d="M647.33,54.88h-20.79v57.72h-8.49v-57.72h-20.75v-6.98h50.03v6.98Z"/>
      </g>
      <path class="cls-2" d="M782.9,92.08c-.8,6.84-3.33,12.12-7.58,15.84s-9.9,5.58-16.95,5.58c-7.64,0-13.77-2.74-18.37-8.22-4.61-5.48-6.91-12.81-6.91-21.99v-6.22c0-6.01,1.07-11.3,3.22-15.86,2.15-4.56,5.19-8.06,9.13-10.51,3.94-2.44,8.5-3.67,13.69-3.67,6.87,0,12.38,1.92,16.53,5.75,4.15,3.84,6.56,9.15,7.24,15.93h-8.58c-.74-5.17-2.35-8.91-4.82-11.23-2.47-2.32-5.93-3.48-10.38-3.48-5.45,0-9.72,2.02-12.82,6.05-3.1,4.03-4.64,9.77-4.64,17.21v6.27c0,7.03,1.47,12.62,4.4,16.77,2.93,4.15,7.04,6.23,12.31,6.23,4.74,0,8.38-1.07,10.91-3.22,2.53-2.15,4.21-5.89,5.04-11.22h8.58Z"/>
      <path class="cls-2" d="M844.3,82.34c0,6.34-1.07,11.87-3.2,16.6s-5.15,8.33-9.06,10.82-8.47,3.73-13.69,3.73-9.61-1.25-13.55-3.75c-3.94-2.5-7-6.07-9.18-10.71-2.18-4.64-3.3-10-3.35-16.11v-4.67c0-6.22,1.08-11.71,3.24-16.48s5.22-8.42,9.18-10.95c3.96-2.53,8.48-3.8,13.57-3.8s9.75,1.25,13.71,3.75c3.96,2.5,7,6.13,9.13,10.89,2.13,4.75,3.2,10.29,3.2,16.6v4.09ZM835.82,78.17c0-7.67-1.54-13.56-4.62-17.66-3.08-4.1-7.39-6.15-12.93-6.15s-9.63,2.05-12.73,6.15c-3.1,4.1-4.69,9.8-4.78,17.08v4.75c0,7.44,1.56,13.28,4.69,17.53,3.12,4.25,7.43,6.38,12.91,6.38s9.78-2.01,12.8-6.02c3.02-4.01,4.58-9.77,4.67-17.26v-4.8Z"/>
      <g>
        <path class="cls-2" d="M936.6,0c-25.77,0-48.74,12.2-63.45,31.13l3.12,7.58c13.24-19.14,35.34-31.71,60.33-31.71s48.12,13.16,61.24,33.06l3.11-7.75c-14.66-19.6-38.05-32.31-64.35-32.31Z"/>
        <path class="cls-2" d="M1005.99,39.92c6.94,11.87,10.91,25.67,10.91,40.38,0,44.28-36.02,80.3-80.3,80.3s-80.3-36.02-80.3-80.3c0-15.3,4.3-29.61,11.75-41.79l9.34,23.13,15.64,39.05,21.15-52.78h11.06v64.69h-8.53v-25.19l.8-27.2-21.24,52.39h-6.53l-22.6-55.72c-2.49,7.36-3.84,15.24-3.84,23.42,0,40.42,32.88,73.3,73.3,73.3s73.3-32.88,73.3-73.3c0-7.5-1.13-14.75-3.24-21.57l-21.84,53.87h-6.53l-21.2-52.25.85,27.06v25.19h-8.54V47.91h11.02l21.15,52.78,24.42-60.77Z"/>
      </g>
      <path class="cls-2" d="M1080.94,82.34c0,6.34-1.07,11.87-3.2,16.6s-5.15,8.33-9.06,10.82-8.47,3.73-13.69,3.73-9.61-1.25-13.55-3.75c-3.94-2.5-7-6.07-9.18-10.71-2.18-4.64-3.3-10-3.35-16.11v-4.67c0-6.22,1.08-11.71,3.24-16.48s5.22-8.42,9.18-10.95c3.96-2.53,8.48-3.8,13.57-3.8s9.75,1.25,13.71,3.75c3.96,2.5,7,6.13,9.13,10.89,2.13,4.75,3.2,10.29,3.2,16.6v4.09ZM1072.45,78.17c0-7.67-1.54-13.56-4.62-17.66-3.08-4.1-7.39-6.15-12.93-6.15s-9.63,2.05-12.73,6.15c-3.1,4.1-4.69,9.8-4.78,17.08v4.75c0,7.44,1.56,13.28,4.69,17.53,3.12,4.25,7.43,6.38,12.91,6.38s9.78-2.01,12.8-6.02c3.02-4.01,4.58-9.77,4.67-17.26v-4.8Z"/>
      <path class="cls-2" d="M1143.45,112.6h-8.58l-32.57-49.85v49.85h-8.58V47.91h8.58l32.66,50.08v-50.08h8.49v64.7Z"/>
      <path class="cls-2" d="M1177.67,83.77c-7.32-2.1-12.64-4.69-15.97-7.75-3.33-3.07-5-6.85-5-11.35,0-5.09,2.04-9.31,6.11-12.64,4.07-3.33,9.37-5,15.89-5,4.44,0,8.4.86,11.89,2.58,3.48,1.72,6.18,4.09,8.09,7.11,1.91,3.02,2.87,6.32,2.87,9.91h-8.58c0-3.92-1.24-7.01-3.73-9.25s-6-3.37-10.53-3.37c-4.21,0-7.49.93-9.84,2.78-2.35,1.85-3.53,4.43-3.53,7.72,0,2.64,1.12,4.88,3.35,6.7,2.24,1.83,6.04,3.49,11.42,5.01,5.38,1.51,9.58,3.18,12.62,5,3.04,1.82,5.29,3.95,6.75,6.38,1.47,2.43,2.2,5.29,2.2,8.58,0,5.24-2.04,9.44-6.13,12.6-4.09,3.16-9.55,4.73-16.4,4.73-4.44,0-8.59-.85-12.44-2.55-3.85-1.7-6.82-4.04-8.91-7-2.09-2.96-3.13-6.32-3.13-10.09h8.58c0,3.91,1.44,7,4.33,9.26,2.89,2.27,6.75,3.4,11.57,3.4,4.5,0,7.95-.92,10.35-2.75,2.4-1.84,3.6-4.34,3.6-7.51s-1.11-5.62-3.33-7.35c-2.22-1.73-6.25-3.44-12.09-5.13Z"/>
    </g>
  </g>
</svg>